<?xml version="1.0" encoding="UTF-8" standalone="no"?>
<!-- Created with Inkscape (http://www.inkscape.org/) -->

<svg
   xmlns:osb="http://www.openswatchbook.org/uri/2009/osb"
   xmlns:dc="http://purl.org/dc/elements/1.1/"
   xmlns:cc="http://creativecommons.org/ns#"
   xmlns:rdf="http://www.w3.org/1999/02/22-rdf-syntax-ns#"
   xmlns:svg="http://www.w3.org/2000/svg"
   xmlns="http://www.w3.org/2000/svg"
   xmlns:sodipodi="http://sodipodi.sourceforge.net/DTD/sodipodi-0.dtd"
   xmlns:inkscape="http://www.inkscape.org/namespaces/inkscape"
   width="300"
   height="210"
   viewBox="0 0 79.375 55.562499"
   version="1.1"
   id="svg8"
   sodipodi:docname="devgramLogo.svg"
   inkscape:version="0.92.5 (2060ec1f9f, 2020-04-08)">
  <defs
     id="defs2">
    <linearGradient
       id="linearGradient4640"
       osb:paint="solid">
      <stop
         style="stop-color:#a02c2c;stop-opacity:1;"
         offset="0"
         id="stop4638" />
    </linearGradient>
    <linearGradient
       id="linearGradient4622"
       osb:paint="solid">
      <stop
         style="stop-color:#a02c2c;stop-opacity:1;"
         offset="0"
         id="stop4620" />
    </linearGradient>
  </defs>
  <sodipodi:namedview
     id="base"
     pagecolor="#ffffff"
     bordercolor="#666666"
     borderopacity="1.0"
     inkscape:pageopacity="0.0"
     inkscape:pageshadow="2"
     inkscape:zoom="1.979899"
     inkscape:cx="36.381729"
     inkscape:cy="58.416771"
     inkscape:document-units="mm"
     inkscape:current-layer="layer1"
     showgrid="false"
     units="px"
     showguides="true"
     inkscape:window-width="1920"
     inkscape:window-height="1019"
     inkscape:window-x="0"
     inkscape:window-y="30"
     inkscape:window-maximized="1" />
  <metadata
     id="metadata5">
    <rdf:RDF>
      <cc:Work
         rdf:about="">
        <dc:format>image/svg+xml</dc:format>
        <dc:type
           rdf:resource="http://purl.org/dc/dcmitype/StillImage" />
        <dc:title></dc:title>
      </cc:Work>
    </rdf:RDF>
  </metadata>
  <g
     inkscape:label="Layer 1"
     inkscape:groupmode="layer"
     id="layer1"
     transform="translate(0,-241.43751)">
    <path
       style="fill:#000000;fill-opacity:1;stroke:none;stroke-width:0.26492494"
       d="m 28.870826,241.54148 c -1.044649,1.5552 -2.372049,3.58768 -3.578374,5.47743 h -5.86579 c 0.02212,-0.1488 0.03633,-0.30048 0.03633,-0.45655 0,-1.51717 -1.087373,-2.73871 -2.438564,-2.73871 h -5.691281 c -1.3511901,0 -2.439213,1.22154 -2.439213,2.73871 0,0.15607 0.014851,0.30775 0.036988,0.45655 H 5.3921071 c -2.6296304,0 -4.74673426,1.92002 -4.74673426,4.30488 v 40.83716 c 0,2.38485 2.11710386,4.30429 4.74673426,4.30429 H 74.07541 c 2.62963,0 4.746735,-1.91944 4.746735,-4.30429 v -40.83716 c 0,-2.38486 -2.117105,-4.30488 -4.746735,-4.30488 H 52.784197 c -1.21365,-1.87717 -2.560236,-3.91246 -3.624438,-5.47743 z m 9.224249,2.51338 c 3.157585,-0.0143 6.634775,0.23257 7.505767,0.70071 0.784092,0.42145 2.381536,2.59541 3.764563,4.84968 h 22.715817 c 1.891108,0 3.413603,1.38076 3.413603,3.09584 v 37.32125 c 0,1.71507 -1.522495,3.09584 -3.413603,3.09584 H 7.6107531 c -1.8911088,0 -3.4136008,-1.38077 -3.4136008,-3.09584 v -37.32125 c 0,-1.71508 1.522492,-3.09584 3.4136008,-3.09584 H 28.525705 c 1.522062,-2.31315 3.321969,-4.60823 4.157691,-5.025 0.69291,-0.34556 2.95578,-0.51428 5.411679,-0.52539 z m -27.187492,10.57127 c -0.9293907,0 -1.6776087,0.67857 -1.6776087,1.52144 v 4.10778 c 0,0.84289 0.748218,1.52145 1.6776087,1.52145 H 21.1406 c 0.929391,0 1.677607,-0.67856 1.677607,-1.52145 v -4.10778 c 0,-0.84287 -0.748216,-1.52144 -1.677607,-1.52144 z m 30.217044,3.97893 c -0.762844,0.0188 -1.396799,0.51055 -1.526452,1.25905 l -5.057473,29.19747 c -0.159575,0.92123 0.50716,1.87168 1.494666,2.13155 l 0.723977,0.19062 c 0.987506,0.25988 1.911163,-0.27251 2.070737,-1.19374 l 5.057473,-29.19689 c 0.159575,-0.92122 -0.50716,-1.87225 -1.494666,-2.13213 l -0.723981,-0.19062 c -0.185155,-0.0487 -0.368239,-0.0697 -0.544281,-0.0653 z m -11.250218,8.15674 -18.427086,10.00174 -0.914705,4.25957 19.900345,6.65235 0.915353,-4.25899 -14.726748,-4.92321 14.868169,-8.07082 z m 17.729702,0.15237 -1.796324,3.66063 16.534748,8.07084 -16.377107,4.92321 1.017851,4.25899 22.130667,-6.65293 -1.01785,-4.25899 z"
       id="rect3723"
       inkscape:connector-curvature="0" />
    <path
       style="stroke-width:0.26458332"
       d="m 107.64779,315.40849 -12.223026,21.08967 -12.223025,21.08915 5.629114,0.009 9.256797,-15.45798 9.27489,-15.48794 9.22062,15.51792 9.20512,15.49001 6.16449,0.0103 -12.15223,-21.12997 z"
       id="path73"
       inkscape:connector-curvature="0" />
    <path
       style="fill:#000000;stroke-width:0.10534798"
       d="m -50.15466,256.96719 -16.449761,3.96701 -1.928121,-1.23604 -2.537637,2.31276 1.174824,2.88066 2.411715,-0.58163 13.309307,8.53175 2.538082,-2.3131 -11.381632,-7.29538 14.038049,-3.38537 z"
       id="rect165-6"
       inkscape:connector-curvature="0" />
    <path
       inkscape:connector-curvature="0"
       style="fill:#000000;stroke-width:0.14492184"
       d="m 115.48152,272.42573 -10.55492,23.43423 4.56045,1.73994 7.81089,-17.34157 6.52829,19.39985 4.30619,-1.44953 -8.09046,-24.04298 z"
       id="rect165-6-9-2-0" />
  </g>
</svg>
